<svg xmlns="http://www.w3.org/2000/svg" viewBox="0 0 100 100" width="100px" height="100px"><path fill="#c7ede6" d="M87.215,56.71C88.35,54.555,89,52.105,89,49.5c0-6.621-4.159-12.257-10.001-14.478 C78.999,35.015,79,35.008,79,35c0-11.598-9.402-21-21-21c-9.784,0-17.981,6.701-20.313,15.757C36.211,29.272,34.638,29,33,29 c-7.692,0-14.023,5.793-14.89,13.252C12.906,43.353,9,47.969,9,53.5C9,59.851,14.149,65,20.5,65c0.177,0,0.352-0.012,0.526-0.022 C21.022,65.153,21,65.324,21,65.5C21,76.822,30.178,86,41.5,86c6.437,0,12.175-2.972,15.934-7.614C59.612,80.611,62.64,82,66,82 c4.65,0,8.674-2.65,10.666-6.518C77.718,75.817,78.837,76,80,76c6.075,0,11-4.925,11-11C91,61.689,89.53,58.727,87.215,56.71z"/><path fill="#fdfcef" d="M30.5,40.5V41h3v-0.5c0,0,4.242,0,5.5,0c2.485,0,4.5-2.015,4.5-4.5 c0-2.333-1.782-4.229-4.055-4.455C39.467,31.364,39.5,31.187,39.5,31c0-2.485-2.015-4.5-4.5-4.5 c-1.438,0-2.703,0.686-3.527,1.736C31.333,25.6,29.171,23.5,26.5,23.5c-2.761,0-5,2.239-5,5c0,0.446,0.077,0.87,0.187,1.282 C21.045,29.005,20.086,28.5,19,28.5c-1.781,0-3.234,1.335-3.455,3.055C15.364,31.533,15.187,31.5,15,31.5 c-2.485,0-4.5,2.015-4.5,4.5s2.015,4.5,4.5,4.5s9.5,0,9.5,0H30.5z"/><path fill="#472b29" d="M26.5,23c-3.033,0-5.5,2.467-5.5,5.5c0,0.016,0,0.031,0,0.047C20.398,28.192,19.71,28,19,28 c-1.831,0-3.411,1.261-3.858,3.005C15.095,31.002,15.048,31,15,31c-2.757,0-5,2.243-5,5s2.243,5,5,5h15.5 c0.276,0,0.5-0.224,0.5-0.5S30.776,40,30.5,40H15c-2.206,0-4-1.794-4-4s1.794-4,4-4c0.117,0,0.23,0.017,0.343,0.032l0.141,0.019 c0.021,0.003,0.041,0.004,0.062,0.004c0.246,0,0.462-0.185,0.495-0.437C16.232,30.125,17.504,29,19,29 c0.885,0,1.723,0.401,2.301,1.1c0.098,0.118,0.241,0.182,0.386,0.182c0.078,0,0.156-0.018,0.228-0.056 c0.209-0.107,0.314-0.346,0.254-0.573C22.054,29.218,22,28.852,22,28.5c0-2.481,2.019-4.5,4.5-4.5 c2.381,0,4.347,1.872,4.474,4.263c0.011,0.208,0.15,0.387,0.349,0.45c0.05,0.016,0.101,0.024,0.152,0.024 c0.15,0,0.296-0.069,0.392-0.192C32.638,27.563,33.779,27,35,27c2.206,0,4,1.794,4,4c0,0.117-0.017,0.23-0.032,0.343 l-0.019,0.141c-0.016,0.134,0.022,0.268,0.106,0.373c0.084,0.105,0.207,0.172,0.34,0.185C41.451,32.247,43,33.949,43,36 c0,2.206-1.794,4-4,4h-5.5c-0.276,0-0.5,0.224-0.5,0.5s0.224,0.5,0.5,0.5H39c2.757,0,5-2.243,5-5 c0-2.397-1.689-4.413-4.003-4.877C39.999,31.082,40,31.041,40,31c0-2.757-2.243-5-5-5c-1.176,0-2.293,0.416-3.183,1.164 C31.219,24.76,29.055,23,26.5,23L26.5,23z"/><path fill="#472b29" d="M25,30c-1.403,0-2.609,0.999-2.913,2.341C21.72,32.119,21.301,32,20.875,32 c-1.202,0-2.198,0.897-2.353,2.068C18.319,34.022,18.126,34,17.937,34c-1.529,0-2.811,1.2-2.918,2.732 C15.01,36.87,15.114,36.99,15.251,37c0.006,0,0.012,0,0.018,0c0.13,0,0.24-0.101,0.249-0.232 c0.089-1.271,1.151-2.268,2.419-2.268c0.229,0,0.47,0.042,0.738,0.127c0.022,0.007,0.045,0.01,0.067,0.01 c0.055,0,0.11-0.02,0.156-0.054C18.962,34.537,19,34.455,19,34.375c0-1.034,0.841-1.875,1.875-1.875 c0.447,0,0.885,0.168,1.231,0.473c0.047,0.041,0.106,0.063,0.165,0.063c0.032,0,0.063-0.006,0.093-0.019 c0.088-0.035,0.148-0.117,0.155-0.212C22.623,31.512,23.712,30.5,25,30.5c0.208,0,0.425,0.034,0.682,0.107 c0.023,0.007,0.047,0.01,0.07,0.01c0.109,0,0.207-0.073,0.239-0.182c0.038-0.133-0.039-0.271-0.172-0.309 C25.517,30.04,25.256,30,25,30L25,30z"/><path fill="#472b29" d="M38.883,31.5c-1.326,0-2.508,0.897-2.874,2.182c-0.038,0.133,0.039,0.271,0.172,0.309 C36.205,33.997,36.228,34,36.25,34c0.109,0,0.209-0.072,0.24-0.182C36.795,32.748,37.779,32,38.883,32 c0.117,0,0.23,0.014,0.342,0.029c0.012,0.002,0.023,0.003,0.035,0.003c0.121,0,0.229-0.092,0.246-0.217 c0.019-0.137-0.077-0.263-0.214-0.281C39.158,31.516,39.022,31.5,38.883,31.5L38.883,31.5z"/><path fill="#1fab00" d="M68.625,75h-31.25C33.854,75,31,72.146,31,68.625v-31.25C31,33.854,33.854,31,37.375,31h31.25 C72.146,31,75,33.854,75,37.375v31.25C75,72.146,72.146,75,68.625,75z"/><path fill="#94e201" d="M67.607,31H53H38.393C34.31,31,31,34.46,31,38.729V54c3.826,9,13.391,7,22,0 c8.609,7,18.174,9,22,0V38.729C75,34.46,71.69,31,67.607,31z"/><path fill="#472b29" d="M66.545,60.519c-3.967,0-8.751-2.056-13.545-5.877c-5.814,4.635-11.614,6.675-15.959,5.595 c-2.917-0.724-5.104-2.756-6.501-6.041C30.514,54.134,30.5,54.067,30.5,54V38.729c0-4.538,3.541-8.229,7.894-8.229h29.213 c4.353,0,7.894,3.691,7.894,8.229V54c0,0.067-0.014,0.134-0.04,0.195c-1.396,3.285-3.584,5.317-6.501,6.041 C68.196,60.426,67.39,60.519,66.545,60.519z M53,53.5c0.111,0,0.224,0.037,0.315,0.112c5.672,4.612,11.283,6.678,15.403,5.653 c2.568-0.637,4.513-2.442,5.781-5.368V38.729c0-3.986-3.093-7.229-6.894-7.229H38.394c-3.801,0-6.894,3.243-6.894,7.229v15.168 c1.269,2.926,3.213,4.731,5.781,5.368c4.118,1.023,9.73-1.041,15.403-5.653C52.776,53.537,52.889,53.5,53,53.5z M75,54h0.01H75z"/><path fill="#472b29" d="M68.625,75.7h-31.25c-3.901,0-7.075-3.174-7.075-7.075v-31.25c0-3.901,3.174-7.075,7.075-7.075 h31.25c3.901,0,7.075,3.174,7.075,7.075v31.25C75.7,72.526,72.526,75.7,68.625,75.7z M37.375,31.7 c-3.129,0-5.675,2.545-5.675,5.675v31.25c0,3.129,2.546,5.675,5.675,5.675h31.25c3.129,0,5.675-2.546,5.675-5.675v-31.25 c0-3.129-2.546-5.675-5.675-5.675H37.375z"/><path fill="#fff" d="M14.5,52h-10C4.224,52,4,51.776,4,51.5S4.224,51,4.5,51h10c0.276,0,0.5,0.224,0.5,0.5 S14.777,52,14.5,52z"/><path fill="#fff" d="M17.5,52h-1c-0.276,0-0.5-0.224-0.5-0.5s0.224-0.5,0.5-0.5h1c0.276,0,0.5,0.224,0.5,0.5 S17.777,52,17.5,52z"/><path fill="#fff" d="M22.491,54H13.5c-0.276,0-0.5-0.224-0.5-0.5s0.224-0.5,0.5-0.5h8.991c0.276,0,0.5,0.224,0.5,0.5 S22.767,54,22.491,54z"/><path fill="#fff" d="M11.5,54h-1c-0.276,0-0.5-0.224-0.5-0.5s0.224-0.5,0.5-0.5h1c0.276,0,0.5,0.224,0.5,0.5 S11.777,54,11.5,54z"/><path fill="#fff" d="M8.5,54h-2C6.224,54,6,53.776,6,53.5S6.224,53,6.5,53h2C8.776,53,9,53.224,9,53.5S8.777,54,8.5,54 z"/><path fill="#fff" d="M14.5,56h-2c-0.276,0-0.5-0.224-0.5-0.5s0.224-0.5,0.5-0.5h2c0.276,0,0.5,0.224,0.5,0.5 S14.776,56,14.5,56z"/><path fill="#fff" d="M17.5,47c-0.177,0-0.823,0-1,0c-0.276,0-0.5,0.224-0.5,0.5c0,0.276,0.224,0.5,0.5,0.5 c0.177,0,0.823,0,1,0c0.276,0,0.5-0.224,0.5-0.5C18,47.224,17.776,47,17.5,47z"/><path fill="#fff" d="M17.5,49c-0.177,0-4.823,0-5,0c-0.276,0-0.5,0.224-0.5,0.5c0,0.276,0.224,0.5,0.5,0.5 c0.177,0,4.823,0,5,0c0.276,0,0.5-0.224,0.5-0.5C18,49.224,17.776,49,17.5,49z"/><path fill="#fff" d="M22.5,51c-0.177,0-2.823,0-3,0c-0.276,0-0.5,0.224-0.5,0.5c0,0.276,0.224,0.5,0.5,0.5 c0.177,0,2.823,0,3,0c0.276,0,0.5-0.224,0.5-0.5C23,51.224,22.776,51,22.5,51z"/><path fill="#fff" d="M72.5,22h-10c-0.276,0-0.5-0.224-0.5-0.5s0.224-0.5,0.5-0.5h10c0.276,0,0.5,0.224,0.5,0.5 S72.776,22,72.5,22z"/><path fill="#fff" d="M76.5,22h-2c-0.276,0-0.5-0.224-0.5-0.5s0.224-0.5,0.5-0.5h2c0.276,0,0.5,0.224,0.5,0.5 S76.776,22,76.5,22z"/><path fill="#fff" d="M81.5,24h-10c-0.276,0-0.5-0.224-0.5-0.5s0.224-0.5,0.5-0.5h10c0.276,0,0.5,0.224,0.5,0.5 S81.777,24,81.5,24z"/><path fill="#fff" d="M69.5,24h-1c-0.276,0-0.5-0.224-0.5-0.5s0.224-0.5,0.5-0.5h1c0.276,0,0.5,0.224,0.5,0.5 S69.776,24,69.5,24z"/><path fill="#fff" d="M66.47,24H64.5c-0.276,0-0.5-0.224-0.5-0.5s0.224-0.5,0.5-0.5h1.97c0.276,0,0.5,0.224,0.5,0.5 S66.746,24,66.47,24z"/><path fill="#fff" d="M75.5,20h-5c-0.276,0-0.5-0.224-0.5-0.5s0.224-0.5,0.5-0.5h5c0.276,0,0.5,0.224,0.5,0.5 S75.777,20,75.5,20z"/><path fill="#fff" d="M72.5,26h-2c-0.276,0-0.5-0.224-0.5-0.5s0.224-0.5,0.5-0.5h2c0.276,0,0.5,0.224,0.5,0.5 S72.776,26,72.5,26z"/><g><path fill="#fdfcef" d="M87.5,70.5c0,0,1.567,0,3.5,0s3.5-1.567,3.5-3.5c0-1.781-1.335-3.234-3.055-3.455 C91.473,63.366,91.5,63.187,91.5,63c0-1.933-1.567-3.5-3.5-3.5c-1.032,0-1.95,0.455-2.59,1.165 c-0.384-1.808-1.987-3.165-3.91-3.165c-2.209,0-4,1.791-4,4c0,0.191,0.03,0.374,0.056,0.558C77.128,61.714,76.592,61.5,76,61.5 c-1.228,0-2.245,0.887-2.455,2.055C73.366,63.527,73.187,63.5,73,63.5c-1.933,0-3.5,1.567-3.5,3.5s1.567,3.5,3.5,3.5s7.5,0,7.5,0 V71h7V70.5z"/><path fill="#472b29" d="M89.25,66C89.112,66,89,65.888,89,65.75c0-1.223,0.995-2.218,2.218-2.218 c0.034,0.009,0.737-0.001,1.244,0.136c0.133,0.036,0.212,0.173,0.176,0.306c-0.036,0.134-0.173,0.213-0.306,0.176 c-0.444-0.12-1.1-0.12-1.113-0.118c-0.948,0-1.719,0.771-1.719,1.718C89.5,65.888,89.388,66,89.25,66z"/><circle cx="82.5" cy="70.5" r=".5" fill="#472b29"/><path fill="#472b29" d="M91,71h-3.5c-0.276,0-0.5-0.224-0.5-0.5s0.224-0.5,0.5-0.5H91c1.654,0,3-1.346,3-3 c0-1.496-1.125-2.768-2.618-2.959c-0.134-0.018-0.255-0.088-0.336-0.196s-0.115-0.244-0.094-0.377C90.975,63.314,91,63.16,91,63 c0-1.654-1.346-3-3-3c-0.85,0-1.638,0.355-2.219,1c-0.125,0.139-0.321,0.198-0.5,0.148c-0.182-0.049-0.321-0.195-0.36-0.379 C84.58,59.165,83.141,58,81.5,58c-1.93,0-3.5,1.57-3.5,3.5c0,0.143,0.021,0.28,0.041,0.418c0.029,0.203-0.063,0.438-0.242,0.54 c-0.179,0.102-0.396,0.118-0.556-0.01C76.878,62.155,76.449,62,76,62c-0.966,0-1.792,0.691-1.963,1.644 c-0.048,0.267-0.296,0.446-0.569,0.405C73.314,64.025,73.16,64,73,64c-1.654,0-3,1.346-3,3s1.346,3,3,3h7.5 c0.276,0,0.5,0.224,0.5,0.5S80.776,71,80.5,71H73c-2.206,0-4-1.794-4-4s1.794-4,4-4c0.059,0,0.116,0.002,0.174,0.006 C73.588,61.82,74.711,61,76,61c0.349,0,0.689,0.061,1.011,0.18C77.176,58.847,79.126,57,81.5,57c1.831,0,3.466,1.127,4.153,2.774 C86.333,59.276,87.155,59,88,59c2.206,0,4,1.794,4,4c0,0.048-0.001,0.095-0.004,0.142C93.739,63.59,95,65.169,95,67 C95,69.206,93.206,71,91,71z"/><path fill="#472b29" d="M85.5,70c-0.159,0-0.841,0-1,0c-0.276,0-0.5,0.224-0.5,0.5c0,0.276,0.224,0.5,0.5,0.5 c0.159,0,0.841,0,1,0c0.276,0,0.5-0.224,0.5-0.5C86,70.224,85.776,70,85.5,70z"/></g><g><ellipse cx="53" cy="57" fill="#ef9922" rx="4" ry="6"/><path fill="#472b29" d="M53,63.25c-2.344,0-4.25-2.804-4.25-6.25s1.906-6.25,4.25-6.25s4.25,2.804,4.25,6.25 S55.344,63.25,53,63.25z M53,51.25c-2.067,0-3.75,2.579-3.75,5.75s1.683,5.75,3.75,5.75s3.75-2.579,3.75-5.75 S55.067,51.25,53,51.25z"/></g><g><ellipse cx="41" cy="45.5" fill="#fff" rx="6.5" ry="8"/></g><g><path fill="#1f212b" d="M41,41.458c-0.405,0-0.791,0.125-1.144,0.346c0.432,0.33,0.715,0.864,0.715,1.471 c0,1.003-0.768,1.817-1.714,1.817c-0.273,0-0.528-0.074-0.758-0.195C38.041,45.252,38,45.617,38,46c0,2.508,1.343,4.542,3,4.542 s3-2.034,3-4.542S42.657,41.458,41,41.458z"/></g><g><ellipse cx="65" cy="45.5" fill="#fff" rx="6.5" ry="8"/></g><g><path fill="#472b29" d="M46.506,50.003c-0.038,0-0.077-0.009-0.114-0.027c-0.122-0.063-0.171-0.213-0.108-0.336 c0.633-1.237,0.967-2.669,0.967-4.14c0-4.273-2.804-7.75-6.25-7.75c-1.145,0-2.266,0.388-3.24,1.123 c-0.109,0.082-0.267,0.063-0.35-0.049c-0.084-0.11-0.062-0.267,0.049-0.35c1.063-0.8,2.286-1.224,3.541-1.224 c3.722,0,6.75,3.701,6.75,8.25c0,1.549-0.354,3.06-1.021,4.367C46.685,49.954,46.597,50.003,46.506,50.003z"/></g><g><path fill="#472b29" d="M34.5,45.75c-0.138,0-0.25-0.112-0.25-0.25c0-2.02,0.603-3.962,1.696-5.471 c0.081-0.112,0.237-0.136,0.349-0.055c0.112,0.081,0.137,0.237,0.056,0.349c-1.032,1.423-1.601,3.262-1.601,5.177 C34.75,45.638,34.638,45.75,34.5,45.75z"/></g><g><path fill="#472b29" d="M41,53.75c-2.997,0-5.594-2.353-6.461-5.854c-0.033-0.134,0.048-0.27,0.182-0.303 c0.136-0.036,0.271,0.049,0.303,0.183C35.835,51.05,38.237,53.25,41,53.25c1.513,0,2.973-0.681,4.112-1.916 c0.093-0.1,0.251-0.108,0.354-0.014c0.101,0.094,0.107,0.252,0.014,0.354C44.245,53.013,42.654,53.75,41,53.75z"/></g><g><path fill="#472b29" d="M65,53.75c-3.722,0-6.75-3.701-6.75-8.25c0-1.614,0.381-3.178,1.102-4.521 c0.066-0.122,0.219-0.167,0.339-0.102c0.122,0.065,0.167,0.217,0.103,0.338c-0.683,1.271-1.043,2.753-1.043,4.285 c0,4.273,2.804,7.75,6.25,7.75c1.167,0,2.305-0.401,3.292-1.162c0.108-0.084,0.266-0.064,0.351,0.046 c0.084,0.109,0.063,0.267-0.046,0.351C67.521,53.313,66.278,53.75,65,53.75z"/></g><g><path fill="#472b29" d="M69.821,51.116c-0.052,0-0.104-0.017-0.148-0.049c-0.111-0.082-0.135-0.238-0.053-0.35 c1.051-1.43,1.63-3.283,1.63-5.218c0-4.273-2.804-7.75-6.25-7.75c-1.523,0-2.99,0.688-4.132,1.937 c-0.095,0.104-0.252,0.109-0.354,0.016s-0.108-0.251-0.016-0.353c1.237-1.354,2.836-2.1,4.501-2.1c3.722,0,6.75,3.701,6.75,8.25 c0,2.04-0.613,3.999-1.728,5.514C69.974,51.08,69.897,51.116,69.821,51.116z"/></g><g><path fill="#1f212b" d="M65,41.458c-0.405,0-0.791,0.125-1.144,0.346c0.432,0.33,0.715,0.864,0.715,1.471 c0,1.003-0.768,1.817-1.714,1.817c-0.273,0-0.528-0.074-0.758-0.195C62.041,45.252,62,45.617,62,46c0,2.508,1.343,4.542,3,4.542 c1.657,0,3-2.034,3-4.542S66.657,41.458,65,41.458z"/></g><g><path fill="#ffce00" d="M58,55.5c0,1.5-3,5.5-5,5.5s-5-4-5-5.5c0-2.485,2.239-4.5,5-4.5S58,53.015,58,55.5z"/></g><g><ellipse cx="53" cy="53" fill="#fff3b7" rx="2" ry="1"/></g><g><path fill="#472b29" d="M53,61.25c-2.087,0-5.25-4.083-5.25-5.75c0-0.872,0.264-1.725,0.762-2.466 c0.076-0.114,0.231-0.146,0.347-0.067c0.114,0.076,0.145,0.231,0.067,0.347c-0.442,0.658-0.676,1.414-0.676,2.187 c0,1.415,2.944,5.25,4.75,5.25s4.75-3.835,4.75-5.25c0-2.344-2.131-4.25-4.75-4.25c-1.058,0-2.059,0.305-2.895,0.881 c-0.111,0.077-0.269,0.05-0.348-0.064c-0.078-0.113-0.05-0.27,0.064-0.348c0.92-0.634,2.019-0.969,3.178-0.969 c2.895,0,5.25,2.131,5.25,4.75C58.25,57.167,55.087,61.25,53,61.25z"/></g></svg>